<svg width="378" height="378" viewBox="0 0 378 378" fill="none" xmlns="http://www.w3.org/2000/svg">
<path fill-rule="evenodd" clip-rule="evenodd" d="M167.141 25C167.141 19.4772 171.618 15 177.141 15H202.106C207.629 15 212.106 19.4772 212.106 25V51.2986H254.532C283.251 51.2986 306.532 74.5798 306.532 103.299V245.614L307.937 246.326L332.374 258.71C341.346 263.256 347 272.46 347 282.519C347 297.26 335.05 309.21 320.309 309.21H56.5623C41.8923 309.21 30 297.317 30 282.648C30 272.529 35.7483 263.29 44.825 258.819L72.7165 245.08V103.299C72.7165 74.5798 95.9977 51.2986 124.716 51.2986H167.141V25ZM232.244 337.854C234.573 332.715 235.772 327.208 235.772 321.646H189.427H143.082C143.082 327.208 144.28 332.715 146.61 337.854C148.939 342.993 152.352 347.662 156.656 351.595C160.959 355.528 166.068 358.648 171.691 360.776C177.314 362.905 183.341 364 189.427 364C195.513 364 201.539 362.905 207.162 360.776C212.785 358.648 217.894 355.528 222.198 351.595C226.501 347.662 229.915 342.993 232.244 337.854Z" fill="white"/>
</svg>
